<?xml version="1.0" encoding="utf-8"?>
<!-- Generator: Adobe Illustrator 27.8.0, SVG Export Plug-In . SVG Version: 6.00 Build 0)  -->
<svg version="1.1" id="Capa_1" xmlns="http://www.w3.org/2000/svg" xmlns:xlink="http://www.w3.org/1999/xlink" x="0px" y="0px"
	 viewBox="0 0 1366 412" style="enable-background:new 0 0 1366 412;" xml:space="preserve">
<g>
	<path d="M166.4,212.95c51.6,4.81,79.55,32.36,79.55,80.89c0,52.47-37.41,85.26-97.6,85.26H82.56c-15.48,0-24.08,0.44-33.11,1.31
		c0.86-9.18,1.29-17.93,1.29-32.79V84.83c0-15.3-0.43-23.61-1.29-32.79c10.75,1.31,22.36,1.31,33.11,1.31h56.76
		c56.33,0,87.72,27.11,87.72,76.95c0,42.85-22.36,72.58-60.63,81.33V212.95z M60.63,62.54v146.04h79.12
		c47.73,0,76.97-27.11,76.97-78.27c0-43.72-26.66-67.77-79.12-67.77H60.63z M148.34,369.92c57.19,0,87.29-31.48,87.29-76.08
		c0-46.35-26.66-76.52-97.6-76.52h-77.4v152.6H148.34z"/>
	<path d="M513.39,344.99c6.88,11.37,14.19,23.17,22.79,34.1h-17.63c-4.3-12.24-10.32-23.17-17.2-34.1l-75.68-121.12h-93.31V346.3
		c0,10.93,0,21.86,1.29,32.79h-12.04c0.86-10.93,0.86-21.86,0.86-32.79V84.83c0-20.55-0.43-25.8-1.29-32.79
		c9.46,0.87,18.06,1.31,33.11,1.31h64.07c62.35,0,96.75,28.86,96.75,81.76c0,46.79-24.51,77.83-79.12,86.57L513.39,344.99z
		 M409.76,215.13c62.35,0,95.45-27.55,95.45-79.58c0-48.1-30.96-73.02-88.58-73.02h-84.28v152.6H409.76z"/>
	<path d="M760.19,369.92c10.75,0,21.5,0,32.25-1.31v11.81c-10.75-1.31-21.5-1.31-32.25-1.31H638.07c-10.75,0-22.36,0-33.11,1.31
		c1.29-10.93,1.29-21.86,1.29-32.79V85.27c0-10.93,0-21.86-1.29-33.23c10.75,1.31,22.36,1.31,33.11,1.31h115.66
		c10.75,0,21.5,0,32.25-1.31v11.81c-10.75-1.31-21.5-1.31-32.25-1.31H616.14v149.1h122.97c10.75,0,21.5,0,32.25-1.31v11.81
		c-10.75-1.31-21.5-1.31-32.25-1.31H616.14v149.1H760.19z"/>
	<path d="M1070.19,346.3c3.87,10.93,8.6,21.86,13.76,32.79h-13.76c-2.15-10.93-6.45-21.86-10.32-32.79l-35.69-97.07H886.59
		l-35.69,97.07c-3.87,10.93-7.74,21.86-10.32,32.79h-13.76c5.16-10.93,9.89-21.86,13.76-32.79l95.89-260.16
		c3.87-10.93,8.6-21.86,11.18-32.79h15.48c2.58,10.93,7.31,21.86,11.18,32.79L1070.19,346.3z M1020.32,240.05L955.39,63.85
		l-65.36,176.21H1020.32z"/>
	<path d="M1154.46,53.35c-1.29,10.93-1.29,21.86-1.29,32.79V346.3c0,10.93,0,21.86,1.29,32.79h-12.47
		c1.29-10.93,1.29-21.86,1.29-32.79V86.15c0-10.93,0-21.86-1.29-32.79H1154.46z M1311.83,346.3c11.61,10.93,23.65,22.3,36.98,32.79
		h-19.78c-9.03-10.93-20.21-21.86-31.82-32.79l-135.87-129.86l129.42-130.3c10.75-10.93,21.5-22.3,29.67-32.79h18.92
		c-12.9,10.93-24.51,21.86-35.26,32.79l-129.42,129.86L1311.83,346.3z"/>
</g>
</svg>
